<svg width="150" height="150" viewBox="0 0 150 150" fill="none" xmlns="http://www.w3.org/2000/svg">
<path d="M104.329 0H44.7123C14.9041 0 0 14.9041 0 44.7123V141.589C0 145.688 3.35342 149.041 7.45205 149.041H104.329C134.137 149.041 149.041 134.137 149.041 104.329V44.7123C149.041 14.9041 134.137 0 104.329 0ZM67.8882 109.247C66.0252 111.11 62.5972 112.824 60.0636 113.197L44.5633 115.358C43.9671 115.432 43.3709 115.507 42.8493 115.507C40.2411 115.507 37.8564 114.613 36.1425 112.899C34.0559 110.812 33.1616 107.757 33.6833 104.478L35.8444 88.9775C36.217 86.4438 37.931 82.9414 39.794 81.1529L67.8882 53.0586C68.3353 54.4 68.9315 55.7414 69.6022 57.2318C70.2729 58.5731 70.9435 59.9145 71.6887 61.1814C72.2849 62.2246 72.9556 63.2679 73.5518 64.0131C74.297 65.1309 75.0422 66.0997 75.5638 66.6214C75.8619 67.0685 76.16 67.3666 76.2345 67.5156C77.874 69.3786 79.5879 71.1671 81.2274 72.5085C81.6745 72.9556 81.9726 73.1792 82.0471 73.2537C83.0159 73.9989 83.9101 74.8186 84.8044 75.3403C85.7731 76.0855 86.8164 76.7561 87.8597 77.3523C89.1266 78.0975 90.4679 78.8427 91.8838 79.5134C93.2997 80.1841 94.6411 80.7057 95.9824 81.1529L67.8882 109.247ZM108.427 68.7824L102.615 74.5951C102.242 74.9677 101.721 75.1912 101.199 75.1912C101.05 75.1912 100.752 75.1912 100.603 75.1167C87.7852 71.4652 77.5759 61.2559 73.9244 48.4383C73.7008 47.7677 73.9244 47.0225 74.446 46.5008L80.3331 40.6137C89.9463 31.0005 99.0378 31.2241 108.427 40.6137C113.197 45.383 115.581 50.0033 115.507 54.7726C115.507 59.4674 113.197 64.0131 108.427 68.7824Z" fill="white"/>
</svg>
