<svg width="570" height="570" viewBox="0 0 570 570" fill="none" xmlns="http://www.w3.org/2000/svg">
<path d="M560 69.1415V424.713C560 452.993 538.55 479.503 512.15 483.039L503.075 484.22C443.125 492.763 350.725 525.459 297.925 556.686C290.775 561.105 278.95 561.105 271.525 556.686L270.425 556.1C217.624 525.168 125.501 492.763 65.8258 484.22L57.8497 483.039C31.4497 479.503 10 452.993 10 424.713V68.8466C10 33.7905 36.6742 7.27774 69.3992 10.2236C127.149 15.2317 214.599 46.459 263.55 79.1584L270.425 83.5761C278.4 88.879 291.6 88.879 299.575 83.5761L304.25 80.3362C321.575 68.8472 343.575 57.3579 367.5 47.0473V167.24L422.5 128.059L477.5 167.24V13.4656C484.925 11.9926 492.075 11.1077 498.675 10.5185H500.325C533.05 7.57262 560 33.7908 560 69.1415Z" fill="#C2E7D9" stroke="#0D0505" stroke-width="20" stroke-linecap="round" stroke-linejoin="round"/>
<path d="M285 93.2993V535.184Z" fill="#C2E7D9"/>
<path d="M285 93.2993V535.184" stroke="#0D0505" stroke-width="20" stroke-linecap="round" stroke-linejoin="round"/>
<path d="M477.5 13.4668V167.242L422.5 128.061L367.5 167.242V47.0485C403.525 31.7299 443.675 19.3586 477.5 13.4668Z" fill="white" stroke="#0D0505" stroke-width="20" stroke-linecap="round" stroke-linejoin="round"/>
<path d="M560 69.1415V424.713C560 452.993 538.55 479.503 512.15 483.039L503.075 484.22C443.125 492.763 350.725 525.459 297.925 556.686C290.775 561.105 278.95 561.105 271.525 556.686L270.425 556.1C217.624 525.168 125.501 492.763 65.8258 484.22L57.8497 483.039C31.4497 479.503 10 452.993 10 424.713V68.8466C10 33.7905 36.6742 7.27774 69.3992 10.2236C127.149 15.2317 214.599 46.459 263.55 79.1584L270.425 83.5761C278.4 88.879 291.6 88.879 299.575 83.5761L304.25 80.3362C321.575 68.8472 343.575 57.3579 367.5 47.0473V167.24L422.5 128.059L477.5 167.24V13.4656C484.925 11.9926 492.075 11.1077 498.675 10.5185H500.325C533.05 7.57262 560 33.7908 560 69.1415Z" fill="#C2E7D9" stroke="#0D0505" stroke-width="20" stroke-linecap="round" stroke-linejoin="round"/>
<path d="M285 93.2993V535.184Z" fill="#C2E7D9"/>
<path d="M285 93.2993V535.184" stroke="#0D0505" stroke-width="20" stroke-linecap="round" stroke-linejoin="round"/>
<path d="M477.5 13.4668V167.242L422.5 128.061L367.5 167.242V47.0485C403.525 31.7299 443.675 19.3586 477.5 13.4668Z" fill="white" stroke="#0D0505" stroke-width="20" stroke-linecap="round" stroke-linejoin="round"/>
<ellipse cx="156.119" cy="262.546" rx="48.1186" ry="51.5463" fill="white" stroke="black" stroke-width="5"/>
<ellipse cx="413.072" cy="262.546" rx="48.1186" ry="51.5463" fill="white" stroke="black" stroke-width="4"/>
<path d="M130 354C187.261 389.223 329.403 438.536 439.884 354" stroke="white" stroke-width="20" stroke-linecap="round"/>
<ellipse cx="156.118" cy="262.546" rx="16.3603" ry="17.5257" fill="black"/>
<ellipse cx="413.071" cy="262.546" rx="16.3603" ry="17.5257" fill="black"/>
<path d="M119.653 161.483C115.093 161.483 110.29 160.215 105.325 157.773C100.482 155.378 95.5986 152.091 90.8361 148.099C86.1139 144.06 81.5532 139.552 77.2346 134.621C72.9564 129.596 69.0818 124.289 65.6512 118.842C62.1802 113.206 59.3953 107.571 57.4176 102.123C55.3189 96.3001 54.2695 90.6646 54.2695 85.358C54.2695 81.6949 54.8346 78.2198 55.9243 74.9794C57.0544 71.6451 58.8706 68.5456 61.3326 65.8688C64.4404 62.2997 67.9921 60.5151 71.786 60.5151C73.36 60.5151 74.9744 60.9378 76.3467 61.6892C77.9207 62.5345 79.2526 63.8025 80.2213 65.4931L89.5849 80.8496C90.4325 82.2115 91.0782 83.5264 91.5222 84.8414C92.0469 86.2502 92.3294 87.6591 92.3294 89.021C92.3294 90.8055 91.8854 92.5431 91.0379 94.1868C90.4325 95.4548 89.5042 96.8167 88.3337 98.1785L85.5892 101.513C85.6296 101.654 85.6699 101.748 85.7103 101.842C86.1946 102.828 87.1633 104.518 89.0199 107.054C90.9975 109.684 92.8541 112.079 94.7107 114.286C97.0919 117.01 99.0696 119.17 100.926 120.955C103.227 123.209 104.72 124.336 105.608 124.853L105.527 125.088L108.474 121.706C109.725 120.251 110.936 119.17 112.106 118.466C114.326 116.869 117.151 116.588 119.976 117.949C121.026 118.466 122.156 119.17 123.367 120.157L136.766 131.24C138.26 132.414 139.349 133.917 139.995 135.701C140.6 137.486 140.883 139.129 140.883 140.773C140.883 143.027 140.439 145.281 139.591 147.395C138.744 149.508 137.695 151.339 136.363 153.03C134.062 155.989 131.56 158.102 128.654 159.464C125.869 160.779 122.842 161.483 119.653 161.483ZM71.786 67.5594C69.5661 67.5594 67.5077 68.6865 65.5301 70.9407C63.6735 72.96 62.382 75.1672 61.5748 77.5623C60.7272 80.0043 60.3236 82.5872 60.3236 85.358C60.3236 89.7254 61.2115 94.4686 62.9874 99.3526C64.8036 104.331 67.3463 109.496 70.5751 114.662C73.804 119.828 77.4768 124.853 81.5128 129.596C85.5489 134.245 89.9078 138.566 94.3878 142.37C98.7467 146.08 103.227 149.085 107.666 151.245C114.568 154.674 121.026 155.472 126.353 152.889C128.412 151.903 130.228 150.4 131.883 148.24C132.811 147.066 133.537 145.798 134.143 144.295C134.627 143.121 134.869 141.9 134.869 140.679C134.869 139.928 134.748 139.176 134.425 138.331C134.304 138.049 134.062 137.533 133.295 136.922L119.896 125.839C119.088 125.182 118.362 124.712 117.676 124.383C116.788 123.961 116.425 123.538 115.052 124.524C114.245 124.994 113.519 125.698 112.711 126.637L109.644 130.16C108.07 131.944 105.648 132.367 103.792 131.568L102.702 131.005C101.047 129.972 99.11 128.375 96.9709 126.262C95.0336 124.336 92.9348 122.082 90.3921 119.17C88.4144 116.822 86.4368 114.333 84.3784 111.563C82.4815 108.98 81.1092 106.773 80.2616 104.941L79.7773 103.532C79.5352 102.452 79.4544 101.842 79.4544 101.184C79.4544 99.4935 79.9791 97.9907 80.9881 96.8166L84.0152 93.1536C84.8224 92.2144 85.4278 91.3221 85.8314 90.5238C86.1543 89.9133 86.2753 89.3967 86.2753 88.9271C86.2753 88.5514 86.1543 87.9878 85.9525 87.4243C85.6699 86.6729 85.226 85.8276 84.6609 84.9353L75.2973 69.5318C74.8937 68.8743 74.4094 68.4047 73.804 68.076C73.1582 67.7473 72.4721 67.5594 71.786 67.5594ZM105.527 125.135L104.882 128.328L105.971 125.041C105.769 124.994 105.608 125.041 105.527 125.135Z" fill="white"/>
</svg>
