<svg width="570" height="570" viewBox="0 0 570 570" fill="none" xmlns="http://www.w3.org/2000/svg">
<path d="M560 69.1415V424.713C560 452.993 538.55 479.503 512.15 483.039L503.075 484.22C443.125 492.763 350.725 525.459 297.925 556.686C290.775 561.105 278.95 561.105 271.525 556.686L270.425 556.1C217.624 525.168 125.501 492.763 65.8258 484.22L57.8497 483.039C31.4497 479.503 10 452.993 10 424.713V68.8466C10 33.7905 36.6742 7.27774 69.3992 10.2236C127.149 15.2317 214.599 46.459 263.55 79.1584L270.425 83.5761C278.4 88.879 291.6 88.879 299.575 83.5761L304.25 80.3362C321.575 68.8472 343.575 57.3579 367.5 47.0473V167.24L422.5 128.059L477.5 167.24V13.4656C484.925 11.9926 492.075 11.1077 498.675 10.5185H500.325C533.05 7.57262 560 33.7908 560 69.1415Z" fill="#C2E7D9" stroke="black" stroke-width="20" stroke-linecap="round" stroke-linejoin="round"/>
<path d="M285 93.2993V535.184Z" fill="#C2E7D9"/>
<path d="M285 93.2993V535.184" stroke="black" stroke-width="20" stroke-linecap="round" stroke-linejoin="round"/>
<path d="M477.5 13.4668V167.242L422.5 128.061L367.5 167.242V47.0485C403.525 31.7299 443.675 19.3586 477.5 13.4668Z" fill="black" stroke="black" stroke-width="20" stroke-linecap="round" stroke-linejoin="round"/>
<path d="M560 69.1415V424.713C560 452.993 538.55 479.503 512.15 483.039L503.075 484.22C443.125 492.763 350.725 525.459 297.925 556.686C290.775 561.105 278.95 561.105 271.525 556.686L270.425 556.1C217.624 525.168 125.501 492.763 65.8258 484.22L57.8497 483.039C31.4497 479.503 10 452.993 10 424.713V68.8466C10 33.7905 36.6742 7.27774 69.3992 10.2236C127.149 15.2317 214.599 46.459 263.55 79.1584L270.425 83.5761C278.4 88.879 291.6 88.879 299.575 83.5761L304.25 80.3362C321.575 68.8472 343.575 57.3579 367.5 47.0473V167.24L422.5 128.059L477.5 167.24V13.4656C484.925 11.9926 492.075 11.1077 498.675 10.5185H500.325C533.05 7.57262 560 33.7908 560 69.1415Z" fill="#C2E7D9" stroke="black" stroke-width="20" stroke-linecap="round" stroke-linejoin="round"/>
<path d="M285 93.2993V535.184Z" fill="#C2E7D9"/>
<path d="M285 93.2993V535.184" stroke="black" stroke-width="20" stroke-linecap="round" stroke-linejoin="round"/>
<path d="M477.5 13.4668V167.242L422.5 128.061L367.5 167.242V47.0485C403.525 31.7299 443.675 19.3586 477.5 13.4668Z" fill="white" stroke="black" stroke-width="20" stroke-linecap="round" stroke-linejoin="round"/>
<path d="M374.442 448.077C355.996 448.077 336.571 443.844 316.493 435.691C296.905 427.695 277.153 416.721 257.891 403.394C238.793 389.911 220.347 374.861 202.881 358.399C185.578 341.623 169.907 323.907 156.032 305.721C141.994 286.907 130.731 268.093 122.732 249.907C114.244 230.466 110 211.653 110 193.937C110 181.708 112.285 170.106 116.693 159.288C121.263 148.157 128.609 137.809 138.566 128.873C151.135 116.958 165.5 111 180.844 111C187.21 111 193.74 112.411 199.29 114.919C205.656 117.742 211.043 121.975 214.96 127.619L252.831 178.886C256.259 183.432 258.871 187.822 260.666 192.212C262.788 196.915 263.931 201.619 263.931 206.165C263.931 212.123 262.135 217.924 258.708 223.411C256.259 227.644 252.505 232.191 247.771 236.737L236.671 247.869C236.834 248.339 236.997 248.653 237.16 248.966C239.119 252.259 243.037 257.903 250.546 266.369C258.544 275.149 266.053 283.144 273.562 290.513C283.193 299.606 291.191 306.818 298.7 312.776C308.005 320.301 314.044 324.064 317.636 325.788L317.309 326.572L329.225 315.284C334.286 310.424 339.183 306.818 343.916 304.466C352.894 299.136 364.321 298.195 375.747 302.742C379.992 304.466 384.562 306.818 389.459 310.11L443.653 347.11C449.693 351.03 454.1 356.047 456.712 362.005C459.161 367.962 460.303 373.45 460.303 378.937C460.303 386.462 458.508 393.988 455.08 401.043C451.652 408.098 447.408 414.212 442.021 419.856C432.717 429.734 422.596 436.789 410.843 441.335C399.58 445.725 387.337 448.077 374.442 448.077ZM180.844 134.517C171.866 134.517 163.541 138.28 155.543 145.805C148.034 152.547 142.81 159.915 139.546 167.911C136.118 176.064 134.485 184.687 134.485 193.937C134.485 208.517 138.077 224.352 145.259 240.657C152.604 257.276 162.888 274.521 175.947 291.767C189.006 309.013 203.86 325.788 220.184 341.623C236.508 357.144 254.137 371.568 272.256 384.267C289.886 396.653 308.005 406.687 325.961 413.899C353.874 425.344 379.992 428.009 401.539 419.386C409.864 416.094 417.209 411.077 423.902 403.865C427.656 399.945 430.595 395.712 433.043 390.695C435.002 386.776 435.981 382.7 435.981 378.623C435.981 376.115 435.492 373.606 434.186 370.784C433.696 369.844 432.717 368.119 429.615 366.081L375.421 329.081C372.156 326.886 369.218 325.318 366.443 324.221C362.852 322.81 361.383 321.399 355.833 324.691C352.568 326.259 349.63 328.61 346.365 331.746L333.959 343.505C327.593 349.462 317.799 350.873 310.29 348.208L305.883 346.327C299.19 342.877 291.355 337.547 282.703 330.492C274.868 324.064 266.38 316.538 256.096 306.818C248.097 298.979 240.099 290.67 231.774 281.42C224.102 272.797 218.552 265.428 215.124 259.314L213.165 254.61C212.185 251.004 211.859 248.966 211.859 246.771C211.859 241.127 213.981 236.11 218.062 232.191L230.305 219.962C233.569 216.826 236.018 213.848 237.65 211.182C238.956 209.144 239.446 207.42 239.446 205.852C239.446 204.598 238.956 202.716 238.14 200.835C236.997 198.326 235.202 195.504 232.916 192.526L195.046 141.102C193.413 138.907 191.455 137.339 189.006 136.242C186.394 135.144 183.619 134.517 180.844 134.517ZM317.309 326.729L314.697 337.39L319.105 326.416C318.288 326.259 317.636 326.416 317.309 326.729Z" fill="url(#paint0_linear_901_33)"/>
<defs>
<linearGradient id="paint0_linear_901_33" x1="285.152" y1="111" x2="285.152" y2="448.077" gradientUnits="userSpaceOnUse">
<stop offset="0.671875"/>
<stop offset="1" stop-opacity="0"/>
</linearGradient>
</defs>
</svg>
