<svg width="570" height="570" viewBox="0 0 570 570" fill="none" xmlns="http://www.w3.org/2000/svg">
<path d="M560 69.1415V424.713C560 452.993 538.55 479.503 512.15 483.039L503.075 484.22C443.125 492.763 350.725 525.459 297.925 556.686C290.775 561.105 278.95 561.105 271.525 556.686L270.425 556.1C217.624 525.168 125.501 492.763 65.8258 484.22L57.8497 483.039C31.4497 479.503 10 452.993 10 424.713V68.8466C10 33.7905 36.6742 7.27774 69.3992 10.2236C127.149 15.2317 214.599 46.459 263.55 79.1584L270.425 83.5761C278.4 88.879 291.6 88.879 299.575 83.5761L304.25 80.3362C321.575 68.8472 343.575 57.3579 367.5 47.0473V167.24L422.5 128.059L477.5 167.24V13.4656C484.925 11.9926 492.075 11.1077 498.675 10.5185H500.325C533.05 7.57262 560 33.7908 560 69.1415Z" fill="#C2E7D9" stroke="#0D0505" stroke-width="20" stroke-linecap="round" stroke-linejoin="round"/>
<path d="M285 93.2993V535.184Z" fill="#C2E7D9"/>
<path d="M285 93.2993V535.184" stroke="#0D0505" stroke-width="20" stroke-linecap="round" stroke-linejoin="round"/>
<path d="M477.5 13.4668V167.242L422.5 128.061L367.5 167.242V47.0485C403.525 31.7299 443.675 19.3586 477.5 13.4668Z" fill="white" stroke="#0D0505" stroke-width="20" stroke-linecap="round" stroke-linejoin="round"/>
<path d="M560 69.1415V424.713C560 452.993 538.55 479.503 512.15 483.039L503.075 484.22C443.125 492.763 350.725 525.459 297.925 556.686C290.775 561.105 278.95 561.105 271.525 556.686L270.425 556.1C217.624 525.168 125.501 492.763 65.8258 484.22L57.8497 483.039C31.4497 479.503 10 452.993 10 424.713V68.8466C10 33.7905 36.6742 7.27774 69.3992 10.2236C127.149 15.2317 214.599 46.459 263.55 79.1584L270.425 83.5761C278.4 88.879 291.6 88.879 299.575 83.5761L304.25 80.3362C321.575 68.8472 343.575 57.3579 367.5 47.0473V167.24L422.5 128.059L477.5 167.24V13.4656C484.925 11.9926 492.075 11.1077 498.675 10.5185H500.325C533.05 7.57262 560 33.7908 560 69.1415Z" fill="#C2E7D9" stroke="#0D0505" stroke-width="20" stroke-linecap="round" stroke-linejoin="round"/>
<path d="M285 93.2993V535.184Z" fill="#C2E7D9"/>
<path d="M285 93.2993V535.184" stroke="#0D0505" stroke-width="20" stroke-linecap="round" stroke-linejoin="round"/>
<path d="M477.5 13.4668V167.242L422.5 128.061L367.5 167.242V47.0485C403.525 31.7299 443.675 19.3586 477.5 13.4668Z" fill="white" stroke="#0D0505" stroke-width="20" stroke-linecap="round" stroke-linejoin="round"/>
<ellipse cx="156.119" cy="259.546" rx="48.1186" ry="51.5463" fill="white"/>
<ellipse cx="413.072" cy="259.546" rx="48.1186" ry="51.5463" fill="white"/>
<path d="M440.529 382.671C382.759 348.415 239.911 301.5 130.684 387.884" stroke="white" stroke-width="20" stroke-linecap="round"/>
<ellipse cx="156.118" cy="259.546" rx="16.3603" ry="17.5257" fill="black"/>
<ellipse cx="413.071" cy="259.546" rx="16.3603" ry="17.5257" fill="black"/>
<path d="M109.066 158.391C104.505 158.391 99.7019 157.123 94.7376 154.681C89.8943 152.286 85.0107 148.998 80.2482 145.007C75.526 140.968 70.9653 136.46 66.6467 131.529C62.3685 126.504 58.4939 121.197 55.0633 115.749C51.5923 110.114 48.8074 104.479 46.8298 99.0311C44.731 93.2078 43.6816 87.5724 43.6816 82.2657C43.6816 78.6026 44.2467 75.1275 45.3364 71.8871C46.4665 68.5528 48.2827 65.4533 50.7447 62.7765C53.8525 59.2074 57.4042 57.4229 61.1981 57.4229C62.7721 57.4229 64.3865 57.8455 65.7588 58.5969C67.3328 59.4422 68.6647 60.7102 69.6334 62.4008L78.997 77.7573C79.8446 79.1192 80.4903 80.4342 80.9343 81.7491C81.459 83.1579 81.7415 84.5668 81.7415 85.9287C81.7415 87.7132 81.2976 89.4508 80.45 91.0945C79.8446 92.3625 78.9163 93.7244 77.7458 95.0863L75.0013 98.4205C75.0417 98.5614 75.082 98.6554 75.1224 98.7493C75.6067 99.7355 76.5754 101.426 78.432 103.962C80.4096 106.592 82.2662 108.987 84.1228 111.194C86.5041 113.918 88.4817 116.078 90.3383 117.863C92.6388 120.117 94.1322 121.244 95.0201 121.761L94.9394 121.995L97.8857 118.614C99.1369 117.158 100.348 116.078 101.518 115.374C103.738 113.777 106.563 113.495 109.388 114.857C110.438 115.374 111.568 116.078 112.779 117.064L126.178 128.147C127.672 129.321 128.761 130.824 129.407 132.609C130.013 134.393 130.295 136.037 130.295 137.681C130.295 139.935 129.851 142.189 129.004 144.302C128.156 146.416 127.107 148.247 125.775 149.938C123.474 152.896 120.972 155.01 118.066 156.371C115.281 157.686 112.254 158.391 109.066 158.391ZM61.1981 64.4671C58.9782 64.4671 56.9199 65.5942 54.9422 67.8484C53.0856 69.8677 51.7941 72.075 50.9869 74.47C50.1393 76.912 49.7357 79.4949 49.7357 82.2657C49.7357 86.6331 50.6236 91.3763 52.3995 96.2603C54.2157 101.238 56.7584 106.404 59.9873 111.57C63.2161 116.736 66.8889 121.761 70.9249 126.504C74.961 131.153 79.3199 135.473 83.7999 139.277C88.1588 142.987 92.6388 145.993 97.0785 148.153C103.98 151.581 110.438 152.38 115.765 149.797C117.824 148.811 119.64 147.308 121.295 145.148C122.223 143.974 122.95 142.706 123.555 141.203C124.039 140.029 124.281 138.808 124.281 137.587C124.281 136.835 124.16 136.084 123.837 135.239C123.716 134.957 123.474 134.44 122.707 133.83L109.308 122.747C108.5 122.089 107.774 121.62 107.088 121.291C106.2 120.868 105.837 120.446 104.464 121.432C103.657 121.901 102.931 122.606 102.124 123.545L99.0561 127.067C97.4821 128.852 95.0605 129.274 93.2039 128.476L92.1141 127.913C90.4594 126.879 88.5221 125.283 86.383 123.169C84.4457 121.244 82.3469 118.99 79.8042 116.078C77.8266 113.73 75.8489 111.241 73.7905 108.47C71.8936 105.887 70.5213 103.68 69.6738 101.849L69.1894 100.44C68.9473 99.3598 68.8665 98.7493 68.8665 98.0918C68.8665 96.4012 69.3912 94.8984 70.4002 93.7244L73.4273 90.0613C74.2345 89.1221 74.8399 88.2298 75.2435 87.4315C75.5664 86.821 75.6875 86.3044 75.6875 85.8348C75.6875 85.4591 75.5664 84.8955 75.3646 84.332C75.0821 83.5806 74.6381 82.7353 74.073 81.843L64.7094 66.4395C64.3058 65.7821 63.8215 65.3124 63.2161 64.9837C62.5703 64.655 61.8842 64.4671 61.1981 64.4671ZM94.9394 122.042L94.2936 125.236L95.3833 121.948C95.1815 121.901 95.0201 121.948 94.9394 122.042Z" fill="white"/>
</svg>
