<svg width="183" height="183" viewBox="0 0 183 183" fill="none" xmlns="http://www.w3.org/2000/svg">
<path d="M87.0781 174.156C39.079 174.156 0 135.077 0 87.0781C0 39.079 39.079 0 87.0781 0C135.077 0 174.156 39.079 174.156 87.0781C174.156 135.077 135.077 174.156 87.0781 174.156ZM87.0781 12.7431C46.0452 12.7431 12.7431 46.1302 12.7431 87.0781C12.7431 128.026 46.0452 161.413 87.0781 161.413C128.111 161.413 161.413 128.026 161.413 87.0781C161.413 46.1302 128.111 12.7431 87.0781 12.7431Z" fill="white"/>
<path d="M176.275 182.651C174.661 182.651 173.047 182.057 171.772 180.782L154.781 163.791C152.318 161.328 152.318 157.25 154.781 154.786C157.245 152.323 161.323 152.323 163.786 154.786L180.777 171.777C183.241 174.241 183.241 178.319 180.777 180.782C179.503 182.057 177.889 182.651 176.275 182.651Z" fill="white"/>
</svg>
